<svg width="192" height="192" viewBox="0 0 192 192" fill="none" xmlns="http://www.w3.org/2000/svg">
<g clip-path="url(#clip0_1_5)">
<rect width="192" height="192" fill="white"/>
<path d="M191.625 83.25H185.25V89.625H191.625V83.25Z" fill="#784A1E"/>
<path d="M191.625 76.875H185.25V83.25H191.625V76.875Z" fill="#784A1E"/>
<path d="M191.625 70.5H185.25V76.875H191.625V70.5Z" fill="#784A1E"/>
<path d="M191.625 64.125H185.25V70.5H191.625V64.125Z" fill="#784A1E"/>
<path d="M185.25 83.25H178.875V89.625H185.25V83.25Z" fill="#784A1E"/>
<path d="M185.25 76.875H178.875V83.25H185.25V76.875Z" fill="#784A1E"/>
<path d="M185.25 70.5H178.875V76.875H185.25V70.5Z" fill="#784A1E"/>
<path d="M185.25 64.125H178.875V70.5H185.25V64.125Z" fill="#784A1E"/>
<path d="M178.875 96H172.5V102.375H178.875V96Z" fill="#784A1E"/>
<path d="M178.875 89.625H172.5V96H178.875V89.625Z" fill="#784A1E"/>
<path d="M178.875 83.25H172.5V89.625H178.875V83.25Z" fill="#F6DE04"/>
<path d="M178.875 76.875H172.5V83.25H178.875V76.875Z" fill="#F6DE04"/>
<path d="M178.875 70.5H172.5V76.875H178.875V70.5Z" fill="#BC8A2C"/>
<path d="M178.875 64.125H172.5V70.5H178.875V64.125Z" fill="#BC8A2C"/>
<path d="M172.5 96H166.125V102.375H172.5V96Z" fill="#784A1E"/>
<path d="M172.5 89.625H166.125V96H172.5V89.625Z" fill="#784A1E"/>
<path d="M172.5 83.25H166.125V89.625H172.5V83.25Z" fill="#F6DE04"/>
<path d="M172.5 76.875H166.125V83.25H172.5V76.875Z" fill="#F6EB16"/>
<path d="M172.5 70.5H166.125V76.875H172.5V70.5Z" fill="#BC8A2C"/>
<path d="M172.5 64.125H166.125V70.5H172.5V64.125Z" fill="#BC8A2C"/>
<path d="M166.125 178.875H159.75V185.25H166.125V178.875Z" fill="#784A1E"/>
<path d="M166.125 172.5H159.75V178.875H166.125V172.5Z" fill="#784A1E"/>
<path d="M166.125 166.125H159.75V172.5H166.125V166.125Z" fill="#784A1E"/>
<path d="M166.125 159.75H159.75V166.125H166.125V159.75Z" fill="#784A1E"/>
<path d="M166.125 153.375H159.75V159.75H166.125V153.375Z" fill="#784A1E"/>
<path d="M166.125 147H159.75V153.375H166.125V147Z" fill="#784A1E"/>
<path d="M166.125 140.625H159.75V147H166.125V140.625Z" fill="#784A1E"/>
<path d="M166.125 108.75H159.75V115.125H166.125V108.75Z" fill="#784A1E"/>
<path d="M166.125 102.375H159.75V108.75H166.125V102.375Z" fill="#784A1E"/>
<path d="M166.125 96H159.75V102.375H166.125V96Z" fill="#B27A2B"/>
<path d="M166.125 89.625H159.75V96H166.125V89.625Z" fill="#B27A2B"/>
<path d="M166.125 83.25H159.75V89.625H166.125V83.25Z" fill="#F6EB16"/>
<path d="M166.125 76.875H159.75V83.25H166.125V76.875Z" fill="#F6EB16"/>
<path d="M166.125 70.5H159.75V76.875H166.125V70.5Z" fill="#BC8A2C"/>
<path d="M166.125 64.125H159.75V70.5H166.125V64.125Z" fill="#BC8A2C"/>
<path d="M159.75 178.875H153.375V185.25H159.75V178.875Z" fill="#784A1E"/>
<path d="M159.75 172.5H153.375V178.875H159.75V172.5Z" fill="#784A1E"/>
<path d="M159.75 166.125H153.375V172.5H159.75V166.125Z" fill="#784A1E"/>
<path d="M159.75 159.75H153.375V166.125H159.75V159.75Z" fill="#784A1E"/>
<path d="M159.75 153.375H153.375V159.75H159.75V153.375Z" fill="#784A1E"/>
<path d="M159.75 147H153.375V153.375H159.75V147Z" fill="#784A1E"/>
<path d="M159.75 140.625H153.375V147H159.75V140.625Z" fill="#784A1E"/>
<path d="M159.75 108.75H153.375V115.125H159.75V108.75Z" fill="#784A1E"/>
<path d="M159.75 102.375H153.375V108.75H159.75V102.375Z" fill="#784A1E"/>
<path d="M159.75 96H153.375V102.375H159.75V96Z" fill="#B27A2B"/>
<path d="M159.75 89.625H153.375V96H159.75V89.625Z" fill="#B27A2B"/>
<path d="M159.75 83.25H153.375V89.625H159.75V83.25Z" fill="#F6EB16"/>
<path d="M159.75 76.875H153.375V83.25H159.75V76.875Z" fill="#F6EB16"/>
<path d="M159.75 70.5H153.375V76.875H159.75V70.5Z" fill="#BC8A2C"/>
<path d="M159.75 64.125H153.375V70.5H159.75V64.125Z" fill="#BC8A2C"/>
<path d="M153.375 178.875H147V185.25H153.375V178.875Z" fill="#784A1E"/>
<path d="M153.375 172.5H147V178.875H153.375V172.5Z" fill="#784A1E"/>
<path d="M153.375 166.125H147V172.5H153.375V166.125Z" fill="#F6EB16"/>
<path d="M153.375 159.75H147V166.125H153.375V159.75Z" fill="#F6EB16"/>
<path d="M153.375 153.375H147V159.75H153.375V153.375Z" fill="#F0A51F"/>
<path d="M153.375 147H147V153.375H153.375V147Z" fill="#F0A51F"/>
<path d="M153.375 140.625H147V147H153.375V140.625Z" fill="#B27A2B"/>
<path d="M153.375 134.25H147V140.625H153.375V134.25Z" fill="#784A1E"/>
<path d="M153.375 127.875H147V134.25H153.375V127.875Z" fill="#784A1E"/>
<path d="M153.375 121.5H147V127.875H153.375V121.5Z" fill="#784A1E"/>
<path d="M153.375 115.125H147V121.5H153.375V115.125Z" fill="#784A1E"/>
<path d="M153.375 108.75H147V115.125H153.375V108.75Z" fill="#B27A2B"/>
<path d="M153.375 102.375H147V108.75H153.375V102.375Z" fill="#B27A2B"/>
<path d="M153.375 96H147V102.375H153.375V96Z" fill="#F6EB16"/>
<path d="M153.375 89.625H147V96H153.375V89.625Z" fill="#F6EB16"/>
<path d="M153.375 83.25H147V89.625H153.375V83.25Z" fill="#F6EB16"/>
<path d="M153.375 76.875H147V83.25H153.375V76.875Z" fill="#F6EB16"/>
<path d="M153.375 70.5H147V76.875H153.375V70.5Z" fill="#F6EB16"/>
<path d="M153.375 64.125H147V70.5H153.375V64.125Z" fill="#F6EB16"/>
<path d="M153.375 57.75H147V64.125H153.375V57.75Z" fill="#BC8A2C"/>
<path d="M153.375 51.375H147V57.75H153.375V51.375Z" fill="#BC8A2C"/>
<path d="M147 178.875H140.625V185.25H147V178.875Z" fill="#784A1E"/>
<path d="M147 172.5H140.625V178.875H147V172.5Z" fill="#784A1E"/>
<path d="M147 166.125H140.625V172.5H147V166.125Z" fill="#F0A51F"/>
<path d="M147 159.75H140.625V166.125H147V159.75Z" fill="#F0A51F"/>
<path d="M147 153.375H140.625V159.75H147V153.375Z" fill="#F0A51F"/>
<path d="M147 147H140.625V153.375H147V147Z" fill="#F0A51F"/>
<path d="M147 140.625H140.625V147H147V140.625Z" fill="#B27A2B"/>
<path d="M147 134.25H140.625V140.625H147V134.25Z" fill="#784A1E"/>
<path d="M147 127.875H140.625V134.25H147V127.875Z" fill="#784A1E"/>
<path d="M147 121.5H140.625V127.875H147V121.5Z" fill="#784A1E"/>
<path d="M147 115.125H140.625V121.5H147V115.125Z" fill="#784A1E"/>
<path d="M147 108.75H140.625V115.125H147V108.75Z" fill="#B27A2B"/>
<path d="M147 102.375H140.625V108.75H147V102.375Z" fill="#B27A2B"/>
<path d="M147 96H140.625V102.375H147V96Z" fill="#F6EB16"/>
<path d="M147 89.625H140.625V96H147V89.625Z" fill="#F6EB16"/>
<path d="M147 83.25H140.625V89.625H147V83.25Z" fill="#F6EB16"/>
<path d="M147 76.875H140.625V83.25H147V76.875Z" fill="#F6EB16"/>
<path d="M147 70.5H140.625V76.875H147V70.5Z" fill="white"/>
<path d="M147 64.125H140.625V70.5H147V64.125Z" fill="white"/>
<path d="M147 57.75H140.625V64.125H147V57.75Z" fill="#BC8A2C"/>
<path d="M147 51.375H140.625V57.75H147V51.375Z" fill="#BC8A2C"/>
<path d="M140.625 178.875H134.25V185.25H140.625V178.875Z" fill="#784A1E"/>
<path d="M140.625 172.5H134.25V178.875H140.625V172.5Z" fill="#784A1E"/>
<path d="M140.625 166.125H134.25V172.5H140.625V166.125Z" fill="#F0A51F"/>
<path d="M140.625 159.75H134.25V166.125H140.625V159.75Z" fill="#F0A51F"/>
<path d="M140.625 153.375H134.25V159.75H140.625V153.375Z" fill="#F6EB16"/>
<path d="M140.625 147H134.25V153.375H140.625V147Z" fill="#F6EB16"/>
<path d="M140.625 140.625H134.25V147H140.625V140.625Z" fill="#F6EB16"/>
<path d="M140.625 134.25H134.25V140.625H140.625V134.25Z" fill="#F6EB16"/>
<path d="M140.625 127.875H134.25V134.25H140.625V127.875Z" fill="#F6DE04"/>
<path d="M140.625 121.5H134.25V127.875H140.625V121.5Z" fill="#F6DE04"/>
<path d="M140.625 115.125H134.25V121.5H140.625V115.125Z" fill="#F6DE04"/>
<path d="M140.625 108.75H134.25V115.125H140.625V108.75Z" fill="#F6EB16"/>
<path d="M140.625 102.375H134.25V108.75H140.625V102.375Z" fill="#F6EB16"/>
<path d="M140.625 96H134.25V102.375H140.625V96Z" fill="#F6EB16"/>
<path d="M140.625 89.625H134.25V96H140.625V89.625Z" fill="#F6EB16"/>
<path d="M140.625 83.25H134.25V89.625H140.625V83.25Z" fill="#F6EB16"/>
<path d="M140.625 76.875H134.25V83.25H140.625V76.875Z" fill="#F6EB16"/>
<path d="M140.625 70.5H134.25V76.875H140.625V70.5Z" fill="white"/>
<path d="M140.625 64.125H134.25V70.5H140.625V64.125Z" fill="white"/>
<path d="M140.625 57.75H134.25V64.125H140.625V57.75Z" fill="#BC8A2C"/>
<path d="M140.625 51.375H134.25V57.75H140.625V51.375Z" fill="#BC8A2C"/>
<path d="M134.25 178.875H127.875V185.25H134.25V178.875Z" fill="#784A1E"/>
<path d="M134.25 172.5H127.875V178.875H134.25V172.5Z" fill="#784A1E"/>
<path d="M134.25 166.125H127.875V172.5H134.25V166.125Z" fill="#B27A2B"/>
<path d="M134.25 159.75H127.875V166.125H134.25V159.75Z" fill="#B27A2B"/>
<path d="M134.25 153.375H127.875V159.75H134.25V153.375Z" fill="#F6EB16"/>
<path d="M134.25 147H127.875V153.375H134.25V147Z" fill="#F6EB16"/>
<path d="M134.25 140.625H127.875V147H134.25V140.625Z" fill="#F6EB16"/>
<path d="M134.25 134.25H127.875V140.625H134.25V134.25Z" fill="#F6EB16"/>
<path d="M134.25 127.875H127.875V134.25H134.25V127.875Z" fill="#F6EB16"/>
<path d="M134.25 121.5H127.875V127.875H134.25V121.5Z" fill="#F6EB16"/>
<path d="M134.25 115.125H127.875V121.5H134.25V115.125Z" fill="#F6EB16"/>
<path d="M134.25 108.75H127.875V115.125H134.25V108.75Z" fill="#F6EB16"/>
<path d="M134.25 102.375H127.875V108.75H134.25V102.375Z" fill="#F6EB16"/>
<path d="M134.25 96H127.875V102.375H134.25V96Z" fill="#F6EB16"/>
<path d="M134.25 89.625H127.875V96H134.25V89.625Z" fill="#F6EB16"/>
<path d="M134.25 83.25H127.875V89.625H134.25V83.25Z" fill="#F6EB16"/>
<path d="M134.25 76.875H127.875V83.25H134.25V76.875Z" fill="#F6EB16"/>
<path d="M134.25 70.5H127.875V76.875H134.25V70.5Z" fill="#F6EB16"/>
<path d="M134.25 64.125H127.875V70.5H134.25V64.125Z" fill="#F6EB16"/>
<path d="M134.25 57.75H127.875V64.125H134.25V57.75Z" fill="#F6DE04"/>
<path d="M134.25 51.375H127.875V57.75H134.25V51.375Z" fill="#F6DE04"/>
<path d="M134.25 45H127.875V51.375H134.25V45Z" fill="#BC8A2C"/>
<path d="M134.25 38.625H127.875V45H134.25V38.625Z" fill="#BC8A2C"/>
<path d="M127.875 178.875H121.5V185.25H127.875V178.875Z" fill="#784A1E"/>
<path d="M127.875 172.5H121.5V178.875H127.875V172.5Z" fill="#784A1E"/>
<path d="M127.875 166.125H121.5V172.5H127.875V166.125Z" fill="#B27A2B"/>
<path d="M127.875 159.75H121.5V166.125H127.875V159.75Z" fill="#B27A2B"/>
<path d="M127.875 153.375H121.5V159.75H127.875V153.375Z" fill="#F6EB16"/>
<path d="M127.875 147H121.5V153.375H127.875V147Z" fill="#F6EB16"/>
<path d="M127.875 140.625H121.5V147H127.875V140.625Z" fill="#F6EB16"/>
<path d="M127.875 134.25H121.5V140.625H127.875V134.25Z" fill="#F6EB16"/>
<path d="M127.875 127.875H121.5V134.25H127.875V127.875Z" fill="#F6EB16"/>
<path d="M127.875 121.5H121.5V127.875H127.875V121.5Z" fill="#F6EB16"/>
<path d="M127.875 115.125H121.5V121.5H127.875V115.125Z" fill="#F6EB16"/>
<path d="M127.875 108.75H121.5V115.125H127.875V108.75Z" fill="#F6EB16"/>
<path d="M127.875 102.375H121.5V108.75H127.875V102.375Z" fill="#F6EB16"/>
<path d="M127.875 96H121.5V102.375H127.875V96Z" fill="#F6EB16"/>
<path d="M127.875 89.625H121.5V96H127.875V89.625Z" fill="#F6EB16"/>
<path d="M127.875 83.25H121.5V89.625H127.875V83.25Z" fill="#F6EB16"/>
<path d="M127.875 76.875H121.5V83.25H127.875V76.875Z" fill="#F6EB16"/>
<path d="M127.875 70.5H121.5V76.875H127.875V70.5Z" fill="#F6EB16"/>
<path d="M127.875 64.125H121.5V70.5H127.875V64.125Z" fill="#F6EB16"/>
<path d="M127.875 57.75H121.5V64.125H127.875V57.75Z" fill="#F6DE04"/>
<path d="M127.875 51.375H121.5V57.75H127.875V51.375Z" fill="#F6DE04"/>
<path d="M127.875 45H121.5V51.375H127.875V45Z" fill="#BC8A2C"/>
<path d="M127.875 38.625H121.5V45H127.875V38.625Z" fill="#BC8A2C"/>
<path d="M121.5 166.125H115.125V172.5H121.5V166.125Z" fill="#784A1E"/>
<path d="M121.5 159.75H115.125V166.125H121.5V159.75Z" fill="#784A1E"/>
<path d="M121.5 153.375H115.125V159.75H121.5V153.375Z" fill="#F0A51F"/>
<path d="M121.5 147H115.125V153.375H121.5V147Z" fill="#F0A51F"/>
<path d="M121.5 140.625H115.125V147H121.5V140.625Z" fill="#F6DE04"/>
<path d="M121.5 134.25H115.125V140.625H121.5V134.25Z" fill="#F6DE04"/>
<path d="M121.5 127.875H115.125V134.25H121.5V127.875Z" fill="#F6EB16"/>
<path d="M121.5 121.5H115.125V127.875H121.5V121.5Z" fill="#F6EB16"/>
<path d="M121.5 115.125H115.125V121.5H121.5V115.125Z" fill="#F6EB16"/>
<path d="M121.5 108.75H115.125V115.125H121.5V108.75Z" fill="#F6EB16"/>
<path d="M121.5 102.375H115.125V108.75H121.5V102.375Z" fill="#F6EB16"/>
<path d="M121.5 96H115.125V102.375H121.5V96Z" fill="#F6EB16"/>
<path d="M121.5 89.625H115.125V96H121.5V89.625Z" fill="#F6EB16"/>
<path d="M121.5 83.25H115.125V89.625H121.5V83.25Z" fill="#F6EB16"/>
<path d="M121.5 76.875H115.125V83.25H121.5V76.875Z" fill="#F6EB16"/>
<path d="M121.5 70.5H115.125V76.875H121.5V70.5Z" fill="#F6EB16"/>
<path d="M121.5 64.125H115.125V70.5H121.5V64.125Z" fill="#F6EB16"/>
<path d="M121.5 57.75H115.125V64.125H121.5V57.75Z" fill="#F6EB16"/>
<path d="M121.5 51.375H115.125V57.75H121.5V51.375Z" fill="#F6EB16"/>
<path d="M121.5 45H115.125V51.375H121.5V45Z" fill="white"/>
<path d="M121.5 38.625H115.125V45H121.5V38.625Z" fill="white"/>
<path d="M121.5 32.25H115.125V38.625H121.5V32.25Z" fill="#BC8A2C"/>
<path d="M121.5 25.875H115.125V32.25H121.5V25.875Z" fill="#BC8A2C"/>
<path d="M121.5 19.5H115.125V25.875H121.5V19.5Z" fill="#BC8A2C"/>
<path d="M115.125 166.125H108.75V172.5H115.125V166.125Z" fill="#784A1E"/>
<path d="M115.125 159.75H108.75V166.125H115.125V159.75Z" fill="#784A1E"/>
<path d="M115.125 153.375H108.75V159.75H115.125V153.375Z" fill="#F0A51F"/>
<path d="M115.125 147H108.75V153.375H115.125V147Z" fill="#F0A51F"/>
<path d="M115.125 140.625H108.75V147H115.125V140.625Z" fill="#F6DE04"/>
<path d="M115.125 134.25H108.75V140.625H115.125V134.25Z" fill="#F6DE04"/>
<path d="M115.125 127.875H108.75V134.25H115.125V127.875Z" fill="#F6EB16"/>
<path d="M115.125 121.5H108.75V127.875H115.125V121.5Z" fill="#F6EB16"/>
<path d="M115.125 115.125H108.75V121.5H115.125V115.125Z" fill="#F6EB16"/>
<path d="M115.125 108.75H108.75V115.125H115.125V108.75Z" fill="#F6EB16"/>
<path d="M115.125 102.375H108.75V108.75H115.125V102.375Z" fill="#F6EB16"/>
<path d="M115.125 96H108.75V102.375H115.125V96Z" fill="#F6EB16"/>
<path d="M115.125 89.625H108.75V96H115.125V89.625Z" fill="#F6EB16"/>
<path d="M115.125 83.25H108.75V89.625H115.125V83.25Z" fill="#F6EB16"/>
<path d="M115.125 76.875H108.75V83.25H115.125V76.875Z" fill="#F6EB16"/>
<path d="M115.125 70.5H108.75V76.875H115.125V70.5Z" fill="#F6EB16"/>
<path d="M115.125 64.125H108.75V70.5H115.125V64.125Z" fill="#F6EB16"/>
<path d="M115.125 57.75H108.75V64.125H115.125V57.75Z" fill="#F6EB16"/>
<path d="M115.125 51.375H108.75V57.75H115.125V51.375Z" fill="#F6EB16"/>
<path d="M115.125 45H108.75V51.375H115.125V45Z" fill="white"/>
<path d="M115.125 38.625H108.75V45H115.125V38.625Z" fill="white"/>
<path d="M115.125 32.25H108.75V38.625H115.125V32.25Z" fill="#BC8A2C"/>
<path d="M115.125 25.875H108.75V32.25H115.125V25.875Z" fill="#BC8A2C"/>
<path d="M115.125 19.5H108.75V25.875H115.125V19.5Z" fill="#BC8A2C"/>
<path d="M108.75 153.375H102.375V159.75H108.75V153.375Z" fill="#784A1E"/>
<path d="M108.75 147H102.375V153.375H108.75V147Z" fill="#784A1E"/>
<path d="M108.75 140.625H102.375V147H108.75V140.625Z" fill="#F6DE04"/>
<path d="M108.75 134.25H102.375V140.625H108.75V134.25Z" fill="#F6DE04"/>
<path d="M108.75 127.875H102.375V134.25H108.75V127.875Z" fill="#F6EB16"/>
<path d="M108.75 121.5H102.375V127.875H108.75V121.5Z" fill="#F6EB16"/>
<path d="M108.75 115.125H102.375V121.5H108.75V115.125Z" fill="#F6EB16"/>
<path d="M108.75 108.75H102.375V115.125H108.75V108.75Z" fill="#F6EB16"/>
<path d="M108.75 102.375H102.375V108.75H108.75V102.375Z" fill="#F6EB16"/>
<path d="M108.75 96H102.375V102.375H108.75V96Z" fill="#F6EB16"/>
<path d="M108.75 89.625H102.375V96H108.75V89.625Z" fill="#F6EB16"/>
<path d="M108.75 83.25H102.375V89.625H108.75V83.25Z" fill="#F6EB16"/>
<path d="M108.75 76.875H102.375V83.25H108.75V76.875Z" fill="#F6EB16"/>
<path d="M108.75 70.5H102.375V76.875H108.75V70.5Z" fill="#F6EB16"/>
<path d="M108.75 64.125H102.375V70.5H108.75V64.125Z" fill="#F6EB16"/>
<path d="M108.75 57.75H102.375V64.125H108.75V57.75Z" fill="#F6EB16"/>
<path d="M108.75 51.375H102.375V57.75H108.75V51.375Z" fill="#F6EB16"/>
<path d="M108.75 45H102.375V51.375H108.75V45Z" fill="#F6EB16"/>
<path d="M108.75 38.625H102.375V45H108.75V38.625Z" fill="#F6EB16"/>
<path d="M108.75 32.25H102.375V38.625H108.75V32.25Z" fill="#F6EB16"/>
<path d="M108.75 25.875H102.375V32.25H108.75V25.875Z" fill="#F6DE04"/>
<path d="M108.75 19.5H102.375V25.875H108.75V19.5Z" fill="#F6DE04"/>
<path d="M108.75 13.125H102.375V19.5H108.75V13.125Z" fill="#BC8A2C"/>
<path d="M108.75 6.75H102.375V13.125H108.75V6.75Z" fill="#BC8A2C"/>
<path d="M102.375 153.375H96V159.75H102.375V153.375Z" fill="#784A1E"/>
<path d="M102.375 147H96V153.375H102.375V147Z" fill="#784A1E"/>
<path d="M102.375 140.625H96V147H102.375V140.625Z" fill="#F6DE04"/>
<path d="M102.375 134.25H96V140.625H102.375V134.25Z" fill="#F6DE04"/>
<path d="M102.375 127.875H96V134.25H102.375V127.875Z" fill="#F6EB16"/>
<path d="M102.375 121.5H96V127.875H102.375V121.5Z" fill="#F6EB16"/>
<path d="M102.375 115.125H96V121.5H102.375V115.125Z" fill="#F6EB16"/>
<path d="M102.375 108.75H96V115.125H102.375V108.75Z" fill="#F6EB16"/>
<path d="M102.375 102.375H96V108.75H102.375V102.375Z" fill="#F6EB16"/>
<path d="M102.375 96H96V102.375H102.375V96Z" fill="#F6EB16"/>
<path d="M102.375 89.625H96V96H102.375V89.625Z" fill="#F6EB16"/>
<path d="M102.375 83.25H96V89.625H102.375V83.25Z" fill="#F6EB16"/>
<path d="M102.375 76.875H96V83.25H102.375V76.875Z" fill="#F6EB16"/>
<path d="M102.375 70.5H96V76.875H102.375V70.5Z" fill="#F6EB16"/>
<path d="M102.375 64.125H96V70.5H102.375V64.125Z" fill="#F6EB16"/>
<path d="M102.375 57.75H96V64.125H102.375V57.75Z" fill="#F6EB16"/>
<path d="M102.375 51.375H96V57.75H102.375V51.375Z" fill="#F6EB16"/>
<path d="M102.375 45H96V51.375H102.375V45Z" fill="#F6EB16"/>
<path d="M102.375 38.625H96V45H102.375V38.625Z" fill="#F6EB16"/>
<path d="M102.375 32.25H96V38.625H102.375V32.25Z" fill="#F6EB16"/>
<path d="M102.375 25.875H96V32.25H102.375V25.875Z" fill="#F6DE04"/>
<path d="M102.375 19.5H96V25.875H102.375V19.5Z" fill="#F6DE04"/>
<path d="M102.375 13.125H96V19.5H102.375V13.125Z" fill="#BC8A2C"/>
<path d="M102.375 6.75H96V13.125H102.375V6.75Z" fill="#BC8A2C"/>
<path d="M96 153.375H89.625V159.75H96V153.375Z" fill="#784A1E"/>
<path d="M96 147H89.625V153.375H96V147Z" fill="#784A1E"/>
<path d="M96 140.625H89.625V147H96V140.625Z" fill="#F6DE04"/>
<path d="M96 134.25H89.625V140.625H96V134.25Z" fill="#F6DE04"/>
<path d="M96 127.875H89.625V134.25H96V127.875Z" fill="#F6EB16"/>
<path d="M96 121.5H89.625V127.875H96V121.5Z" fill="#F6EB16"/>
<path d="M96 115.125H89.625V121.5H96V115.125Z" fill="#F6EB16"/>
<path d="M96 108.75H89.625V115.125H96V108.75Z" fill="#F6EB16"/>
<path d="M96 102.375H89.625V108.75H96V102.375Z" fill="#F6EB16"/>
<path d="M96 96H89.625V102.375H96V96Z" fill="#F6EB16"/>
<path d="M96 89.625H89.625V96H96V89.625Z" fill="#F6EB16"/>
<path d="M96 83.25H89.625V89.625H96V83.25Z" fill="#F6EB16"/>
<path d="M96 76.875H89.625V83.25H96V76.875Z" fill="#F6EB16"/>
<path d="M96 70.5H89.625V76.875H96V70.5Z" fill="#F6EB16"/>
<path d="M96 64.125H89.625V70.5H96V64.125Z" fill="#F6EB16"/>
<path d="M96 57.75H89.625V64.125H96V57.75Z" fill="#F6EB16"/>
<path d="M96 51.375H89.625V57.75H96V51.375Z" fill="#F6EB16"/>
<path d="M96 45H89.625V51.375H96V45Z" fill="#F6EB16"/>
<path d="M96 38.625H89.625V45H96V38.625Z" fill="#F6EB16"/>
<path d="M96 32.25H89.625V38.625H96V32.25Z" fill="#F6EB16"/>
<path d="M96 25.875H89.625V32.25H96V25.875Z" fill="#F6DE04"/>
<path d="M96 19.5H89.625V25.875H96V19.5Z" fill="#F6DE04"/>
<path d="M96 13.125H89.625V19.5H96V13.125Z" fill="#BC8A2C"/>
<path d="M96 6.75H89.625V13.125H96V6.75Z" fill="#BC8A2C"/>
<path d="M89.625 153.375H83.25V159.75H89.625V153.375Z" fill="#784A1E"/>
<path d="M89.625 147H83.25V153.375H89.625V147Z" fill="#784A1E"/>
<path d="M89.625 140.625H83.25V147H89.625V140.625Z" fill="#F6DE04"/>
<path d="M89.625 134.25H83.25V140.625H89.625V134.25Z" fill="#F6DE04"/>
<path d="M89.625 127.875H83.25V134.25H89.625V127.875Z" fill="#F6EB16"/>
<path d="M89.625 121.5H83.25V127.875H89.625V121.5Z" fill="#F6EB16"/>
<path d="M89.625 115.125H83.25V121.5H89.625V115.125Z" fill="#F6EB16"/>
<path d="M89.625 108.75H83.25V115.125H89.625V108.75Z" fill="#F6EB16"/>
<path d="M89.625 102.375H83.25V108.75H89.625V102.375Z" fill="#F6EB16"/>
<path d="M89.625 96H83.25V102.375H89.625V96Z" fill="#F6EB16"/>
<path d="M89.625 89.625H83.25V96H89.625V89.625Z" fill="#F6EB16"/>
<path d="M89.625 83.25H83.25V89.625H89.625V83.25Z" fill="#F6EB16"/>
<path d="M89.625 76.875H83.25V83.25H89.625V76.875Z" fill="#F6EB16"/>
<path d="M89.625 70.5H83.25V76.875H89.625V70.5Z" fill="#F6EB16"/>
<path d="M89.625 64.125H83.25V70.5H89.625V64.125Z" fill="#F6EB16"/>
<path d="M89.625 57.75H83.25V64.125H89.625V57.75Z" fill="#F6EB16"/>
<path d="M89.625 51.375H83.25V57.75H89.625V51.375Z" fill="#F6EB16"/>
<path d="M89.625 45H83.25V51.375H89.625V45Z" fill="#F6EB16"/>
<path d="M89.625 38.625H83.25V45H89.625V38.625Z" fill="#F6EB16"/>
<path d="M89.625 32.25H83.25V38.625H89.625V32.25Z" fill="#F6EB16"/>
<path d="M89.625 25.875H83.25V32.25H89.625V25.875Z" fill="#F6DE04"/>
<path d="M89.625 19.5H83.25V25.875H89.625V19.5Z" fill="#F6DE04"/>
<path d="M89.625 13.125H83.25V19.5H89.625V13.125Z" fill="#BC8A2C"/>
<path d="M89.625 6.75H83.25V13.125H89.625V6.75Z" fill="#BC8A2C"/>
<path d="M83.25 166.125H76.875V172.5H83.25V166.125Z" fill="#784A1E"/>
<path d="M83.25 159.75H76.875V166.125H83.25V159.75Z" fill="#784A1E"/>
<path d="M83.25 153.375H76.875V159.75H83.25V153.375Z" fill="#F0A51F"/>
<path d="M83.25 147H76.875V153.375H83.25V147Z" fill="#F0A51F"/>
<path d="M83.25 140.625H76.875V147H83.25V140.625Z" fill="#F6DE04"/>
<path d="M83.25 134.25H76.875V140.625H83.25V134.25Z" fill="#F6DE04"/>
<path d="M83.25 127.875H76.875V134.25H83.25V127.875Z" fill="#F6EB16"/>
<path d="M83.25 121.5H76.875V127.875H83.25V121.5Z" fill="#F6EB16"/>
<path d="M83.25 115.125H76.875V121.5H83.25V115.125Z" fill="#F6EB16"/>
<path d="M83.25 108.75H76.875V115.125H83.25V108.75Z" fill="#F6EB16"/>
<path d="M83.25 102.375H76.875V108.75H83.25V102.375Z" fill="#F6EB16"/>
<path d="M83.25 96H76.875V102.375H83.25V96Z" fill="#F6EB16"/>
<path d="M83.25 89.625H76.875V96H83.25V89.625Z" fill="#F6EB16"/>
<path d="M83.25 83.25H76.875V89.625H83.25V83.25Z" fill="#F6EB16"/>
<path d="M83.25 76.875H76.875V83.25H83.25V76.875Z" fill="#F6EB16"/>
<path d="M83.25 70.5H76.875V76.875H83.25V70.5Z" fill="#F6EB16"/>
<path d="M83.25 64.125H76.875V70.5H83.25V64.125Z" fill="#F6EB16"/>
<path d="M83.25 57.75H76.875V64.125H83.25V57.75Z" fill="#F6EB16"/>
<path d="M83.25 51.375H76.875V57.75H83.25V51.375Z" fill="#F6EB16"/>
<path d="M83.25 45H76.875V51.375H83.25V45Z" fill="white"/>
<path d="M83.25 38.625H76.875V45H83.25V38.625Z" fill="white"/>
<path d="M83.25 32.25H76.875V38.625H83.25V32.25Z" fill="#BC8A2C"/>
<path d="M83.25 25.875H76.875V32.25H83.25V25.875Z" fill="#BC8A2C"/>
<path d="M83.25 19.5H76.875V25.875H83.25V19.5Z" fill="#BC8A2C"/>
<path d="M76.875 166.125H70.5V172.5H76.875V166.125Z" fill="#784A1E"/>
<path d="M76.875 159.75H70.5V166.125H76.875V159.75Z" fill="#784A1E"/>
<path d="M76.875 153.375H70.5V159.75H76.875V153.375Z" fill="#F0A51F"/>
<path d="M76.875 147H70.5V153.375H76.875V147Z" fill="#F0A51F"/>
<path d="M76.875 140.625H70.5V147H76.875V140.625Z" fill="#F6DE04"/>
<path d="M76.875 134.25H70.5V140.625H76.875V134.25Z" fill="#F6DE04"/>
<path d="M76.875 127.875H70.5V134.25H76.875V127.875Z" fill="#F6EB16"/>
<path d="M76.875 121.5H70.5V127.875H76.875V121.5Z" fill="#F6EB16"/>
<path d="M76.875 115.125H70.5V121.5H76.875V115.125Z" fill="#F6EB16"/>
<path d="M76.875 108.75H70.5V115.125H76.875V108.75Z" fill="#F6EB16"/>
<path d="M76.875 102.375H70.5V108.75H76.875V102.375Z" fill="#F6EB16"/>
<path d="M76.875 96H70.5V102.375H76.875V96Z" fill="#F6EB16"/>
<path d="M76.875 89.625H70.5V96H76.875V89.625Z" fill="#F6EB16"/>
<path d="M76.875 83.25H70.5V89.625H76.875V83.25Z" fill="#F6EB16"/>
<path d="M76.875 76.875H70.5V83.25H76.875V76.875Z" fill="#F6EB16"/>
<path d="M76.875 70.5H70.5V76.875H76.875V70.5Z" fill="#F6EB16"/>
<path d="M76.875 64.125H70.5V70.5H76.875V64.125Z" fill="#F6EB16"/>
<path d="M76.875 57.75H70.5V64.125H76.875V57.75Z" fill="#F6EB16"/>
<path d="M76.875 51.375H70.5V57.75H76.875V51.375Z" fill="#F6EB16"/>
<path d="M76.875 45H70.5V51.375H76.875V45Z" fill="white"/>
<path d="M76.875 38.625H70.5V45H76.875V38.625Z" fill="white"/>
<path d="M76.875 32.25H70.5V38.625H76.875V32.25Z" fill="#BC8A2C"/>
<path d="M76.875 25.875H70.5V32.25H76.875V25.875Z" fill="#BC8A2C"/>
<path d="M76.875 19.5H70.5V25.875H76.875V19.5Z" fill="#BC8A2C"/>
<path d="M70.5 178.875H64.125V185.25H70.5V178.875Z" fill="#784A1E"/>
<path d="M70.5 172.5H64.125V178.875H70.5V172.5Z" fill="#784A1E"/>
<path d="M70.5 166.125H64.125V172.5H70.5V166.125Z" fill="#B27A2B"/>
<path d="M70.5 159.75H64.125V166.125H70.5V159.75Z" fill="#B27A2B"/>
<path d="M70.5 153.375H64.125V159.75H70.5V153.375Z" fill="#F6EB16"/>
<path d="M70.5 147H64.125V153.375H70.5V147Z" fill="#F6EB16"/>
<path d="M70.5 140.625H64.125V147H70.5V140.625Z" fill="#F6EB16"/>
<path d="M70.5 134.25H64.125V140.625H70.5V134.25Z" fill="#F6EB16"/>
<path d="M70.5 127.875H64.125V134.25H70.5V127.875Z" fill="#F6EB16"/>
<path d="M70.5 121.5H64.125V127.875H70.5V121.5Z" fill="#F6EB16"/>
<path d="M70.5 115.125H64.125V121.5H70.5V115.125Z" fill="#F6EB16"/>
<path d="M70.5 108.75H64.125V115.125H70.5V108.75Z" fill="#F6EB16"/>
<path d="M70.5 102.375H64.125V108.75H70.5V102.375Z" fill="#F6EB16"/>
<path d="M70.5 96H64.125V102.375H70.5V96Z" fill="#F6EB16"/>
<path d="M70.5 89.625H64.125V96H70.5V89.625Z" fill="#F6EB16"/>
<path d="M70.5 83.25H64.125V89.625H70.5V83.25Z" fill="#F6EB16"/>
<path d="M70.5 76.875H64.125V83.25H70.5V76.875Z" fill="#F6EB16"/>
<path d="M70.5 70.5H64.125V76.875H70.5V70.5Z" fill="#F6EB16"/>
<path d="M70.5 64.125H64.125V70.5H70.5V64.125Z" fill="#F6EB16"/>
<path d="M70.5 57.75H64.125V64.125H70.5V57.75Z" fill="#F6DE04"/>
<path d="M70.5 51.375H64.125V57.75H70.5V51.375Z" fill="#F6DE04"/>
<path d="M70.5 45H64.125V51.375H70.5V45Z" fill="#BC8A2C"/>
<path d="M70.5 38.625H64.125V45H70.5V38.625Z" fill="#BC8A2C"/>
<path d="M64.125 178.875H57.75V185.25H64.125V178.875Z" fill="#784A1E"/>
<path d="M64.125 172.5H57.75V178.875H64.125V172.5Z" fill="#784A1E"/>
<path d="M64.125 166.125H57.75V172.5H64.125V166.125Z" fill="#B27A2B"/>
<path d="M64.125 159.75H57.75V166.125H64.125V159.75Z" fill="#B27A2B"/>
<path d="M64.125 153.375H57.75V159.75H64.125V153.375Z" fill="#F6EB16"/>
<path d="M64.125 147H57.75V153.375H64.125V147Z" fill="#F6EB16"/>
<path d="M64.125 140.625H57.75V147H64.125V140.625Z" fill="#F6EB16"/>
<path d="M64.125 134.25H57.75V140.625H64.125V134.25Z" fill="#F6EB16"/>
<path d="M64.125 127.875H57.75V134.25H64.125V127.875Z" fill="#F6EB16"/>
<path d="M64.125 121.5H57.75V127.875H64.125V121.5Z" fill="#F6EB16"/>
<path d="M64.125 115.125H57.75V121.5H64.125V115.125Z" fill="#F6EB16"/>
<path d="M64.125 108.75H57.75V115.125H64.125V108.75Z" fill="#F6EB16"/>
<path d="M64.125 102.375H57.75V108.75H64.125V102.375Z" fill="#F6EB16"/>
<path d="M64.125 96H57.75V102.375H64.125V96Z" fill="#F6EB16"/>
<path d="M64.125 89.625H57.75V96H64.125V89.625Z" fill="#F6EB16"/>
<path d="M64.125 83.25H57.75V89.625H64.125V83.25Z" fill="#F6EB16"/>
<path d="M64.125 76.875H57.75V83.25H64.125V76.875Z" fill="#F6EB16"/>
<path d="M64.125 70.5H57.75V76.875H64.125V70.5Z" fill="#F6EB16"/>
<path d="M64.125 64.125H57.75V70.5H64.125V64.125Z" fill="#F6EB16"/>
<path d="M64.125 57.75H57.75V64.125H64.125V57.75Z" fill="#F6DE04"/>
<path d="M64.125 51.375H57.75V57.75H64.125V51.375Z" fill="#F6DE04"/>
<path d="M64.125 45H57.75V51.375H64.125V45Z" fill="#BC8A2C"/>
<path d="M64.125 38.625H57.75V45H64.125V38.625Z" fill="#BC8A2C"/>
<path d="M57.75 178.875H51.375V185.25H57.75V178.875Z" fill="#784A1E"/>
<path d="M57.75 172.5H51.375V178.875H57.75V172.5Z" fill="#784A1E"/>
<path d="M57.75 166.125H51.375V172.5H57.75V166.125Z" fill="#F0A51F"/>
<path d="M57.75 159.75H51.375V166.125H57.75V159.75Z" fill="#F0A51F"/>
<path d="M57.75 153.375H51.375V159.75H57.75V153.375Z" fill="#F6EB16"/>
<path d="M57.75 147H51.375V153.375H57.75V147Z" fill="#F6EB16"/>
<path d="M57.75 140.625H51.375V147H57.75V140.625Z" fill="#F6EB16"/>
<path d="M57.75 134.25H51.375V140.625H57.75V134.25Z" fill="#F6EB16"/>
<path d="M57.75 127.875H51.375V134.25H57.75V127.875Z" fill="#F6DE04"/>
<path d="M57.75 121.5H51.375V127.875H57.75V121.5Z" fill="#F6DE04"/>
<path d="M57.75 115.125H51.375V121.5H57.75V115.125Z" fill="#F6DE04"/>
<path d="M57.75 108.75H51.375V115.125H57.75V108.75Z" fill="#F6EB16"/>
<path d="M57.75 102.375H51.375V108.75H57.75V102.375Z" fill="#F6EB16"/>
<path d="M57.75 96H51.375V102.375H57.75V96Z" fill="#F6EB16"/>
<path d="M57.75 89.625H51.375V96H57.75V89.625Z" fill="#F6EB16"/>
<path d="M57.75 83.25H51.375V89.625H57.75V83.25Z" fill="#F6EB16"/>
<path d="M57.75 76.875H51.375V83.25H57.75V76.875Z" fill="#F6EB16"/>
<path d="M57.75 70.5H51.375V76.875H57.75V70.5Z" fill="white"/>
<path d="M57.75 64.125H51.375V70.5H57.75V64.125Z" fill="white"/>
<path d="M57.75 57.75H51.375V64.125H57.75V57.75Z" fill="#BC8A2C"/>
<path d="M57.75 51.375H51.375V57.75H57.75V51.375Z" fill="#BC8A2C"/>
<path d="M51.375 178.875H45V185.25H51.375V178.875Z" fill="#784A1E"/>
<path d="M51.375 172.5H45V178.875H51.375V172.5Z" fill="#784A1E"/>
<path d="M51.375 166.125H45V172.5H51.375V166.125Z" fill="#F0A51F"/>
<path d="M51.375 159.75H45V166.125H51.375V159.75Z" fill="#F0A51F"/>
<path d="M51.375 153.375H45V159.75H51.375V153.375Z" fill="#F0A51F"/>
<path d="M51.375 147H45V153.375H51.375V147Z" fill="#F0A51F"/>
<path d="M51.375 140.625H45V147H51.375V140.625Z" fill="#B27A2B"/>
<path d="M51.375 134.25H45V140.625H51.375V134.25Z" fill="#784A1E"/>
<path d="M51.375 127.875H45V134.25H51.375V127.875Z" fill="#784A1E"/>
<path d="M51.375 121.5H45V127.875H51.375V121.5Z" fill="#784A1E"/>
<path d="M51.375 115.125H45V121.5H51.375V115.125Z" fill="#784A1E"/>
<path d="M51.375 108.75H45V115.125H51.375V108.75Z" fill="#B27A2B"/>
<path d="M51.375 102.375H45V108.75H51.375V102.375Z" fill="#B27A2B"/>
<path d="M51.375 96H45V102.375H51.375V96Z" fill="#F6EB16"/>
<path d="M51.375 89.625H45V96H51.375V89.625Z" fill="#F6EB16"/>
<path d="M51.375 83.25H45V89.625H51.375V83.25Z" fill="#F6EB16"/>
<path d="M51.375 76.875H45V83.25H51.375V76.875Z" fill="#F6EB16"/>
<path d="M51.375 70.5H45V76.875H51.375V70.5Z" fill="white"/>
<path d="M51.375 64.125H45V70.5H51.375V64.125Z" fill="white"/>
<path d="M51.375 57.75H45V64.125H51.375V57.75Z" fill="#BC8A2C"/>
<path d="M51.375 51.375H45V57.75H51.375V51.375Z" fill="#BC8A2C"/>
<path d="M45 178.875H38.625V185.25H45V178.875Z" fill="#784A1E"/>
<path d="M45 172.5H38.625V178.875H45V172.5Z" fill="#784A1E"/>
<path d="M45 166.125H38.625V172.5H45V166.125Z" fill="#F6EB16"/>
<path d="M45 159.75H38.625V166.125H45V159.75Z" fill="#F6EB16"/>
<path d="M45 153.375H38.625V159.75H45V153.375Z" fill="#F0A51F"/>
<path d="M45 147H38.625V153.375H45V147Z" fill="#F0A51F"/>
<path d="M45 140.625H38.625V147H45V140.625Z" fill="#B27A2B"/>
<path d="M45 134.25H38.625V140.625H45V134.25Z" fill="#784A1E"/>
<path d="M45 127.875H38.625V134.25H45V127.875Z" fill="#784A1E"/>
<path d="M45 121.5H38.625V127.875H45V121.5Z" fill="#784A1E"/>
<path d="M45 115.125H38.625V121.5H45V115.125Z" fill="#784A1E"/>
<path d="M45 108.75H38.625V115.125H45V108.75Z" fill="#B27A2B"/>
<path d="M45 102.375H38.625V108.75H45V102.375Z" fill="#B27A2B"/>
<path d="M45 96H38.625V102.375H45V96Z" fill="#F6EB16"/>
<path d="M45 89.625H38.625V96H45V89.625Z" fill="#F6EB16"/>
<path d="M45 83.25H38.625V89.625H45V83.25Z" fill="#F6EB16"/>
<path d="M45 76.875H38.625V83.25H45V76.875Z" fill="#F6EB16"/>
<path d="M45 70.5H38.625V76.875H45V70.5Z" fill="#F6EB16"/>
<path d="M45 64.125H38.625V70.5H45V64.125Z" fill="#F6EB16"/>
<path d="M45 57.75H38.625V64.125H45V57.75Z" fill="#BC8A2C"/>
<path d="M45 51.375H38.625V57.75H45V51.375Z" fill="#BC8A2C"/>
<path d="M38.625 178.875H32.25V185.25H38.625V178.875Z" fill="#784A1E"/>
<path d="M38.625 172.5H32.25V178.875H38.625V172.5Z" fill="#784A1E"/>
<path d="M38.625 166.125H32.25V172.5H38.625V166.125Z" fill="#784A1E"/>
<path d="M38.625 159.75H32.25V166.125H38.625V159.75Z" fill="#784A1E"/>
<path d="M38.625 153.375H32.25V159.75H38.625V153.375Z" fill="#784A1E"/>
<path d="M38.625 147H32.25V153.375H38.625V147Z" fill="#784A1E"/>
<path d="M38.625 140.625H32.25V147H38.625V140.625Z" fill="#784A1E"/>
<path d="M38.625 108.75H32.25V115.125H38.625V108.75Z" fill="#784A1E"/>
<path d="M38.625 102.375H32.25V108.75H38.625V102.375Z" fill="#784A1E"/>
<path d="M38.625 96H32.25V102.375H38.625V96Z" fill="#B27A2B"/>
<path d="M38.625 89.625H32.25V96H38.625V89.625Z" fill="#B27A2B"/>
<path d="M38.625 83.25H32.25V89.625H38.625V83.25Z" fill="#F6EB16"/>
<path d="M38.625 76.875H32.25V83.25H38.625V76.875Z" fill="#F6EB16"/>
<path d="M38.625 70.5H32.25V76.875H38.625V70.5Z" fill="#BC8A2C"/>
<path d="M38.625 64.125H32.25V70.5H38.625V64.125Z" fill="#BC8A2C"/>
<path d="M32.25 178.875H25.875V185.25H32.25V178.875Z" fill="#784A1E"/>
<path d="M32.25 172.5H25.875V178.875H32.25V172.5Z" fill="#784A1E"/>
<path d="M32.25 166.125H25.875V172.5H32.25V166.125Z" fill="#784A1E"/>
<path d="M32.25 159.75H25.875V166.125H32.25V159.75Z" fill="#784A1E"/>
<path d="M32.25 153.375H25.875V159.75H32.25V153.375Z" fill="#784A1E"/>
<path d="M32.25 147H25.875V153.375H32.25V147Z" fill="#784A1E"/>
<path d="M32.25 140.625H25.875V147H32.25V140.625Z" fill="#784A1E"/>
<path d="M32.25 108.75H25.875V115.125H32.25V108.75Z" fill="#784A1E"/>
<path d="M32.25 102.375H25.875V108.75H32.25V102.375Z" fill="#784A1E"/>
<path d="M32.25 96H25.875V102.375H32.25V96Z" fill="#B27A2B"/>
<path d="M32.25 89.625H25.875V96H32.25V89.625Z" fill="#B27A2B"/>
<path d="M32.25 83.25H25.875V89.625H32.25V83.25Z" fill="#F6EB16"/>
<path d="M32.25 76.875H25.875V83.25H32.25V76.875Z" fill="#F6EB16"/>
<path d="M32.25 70.5H25.875V76.875H32.25V70.5Z" fill="#BC8A2C"/>
<path d="M32.25 64.125H25.875V70.5H32.25V64.125Z" fill="#BC8A2C"/>
<path d="M25.875 96H19.5V102.375H25.875V96Z" fill="#784A1E"/>
<path d="M25.875 89.625H19.5V96H25.875V89.625Z" fill="#784A1E"/>
<path d="M25.875 83.25H19.5V89.625H25.875V83.25Z" fill="#F6EB16"/>
<path d="M25.875 76.875H19.5V83.25H25.875V76.875Z" fill="#F6EB16"/>
<path d="M25.875 70.5H19.5V76.875H25.875V70.5Z" fill="#BC8A2C"/>
<path d="M25.875 64.125H19.5V70.5H25.875V64.125Z" fill="#BC8A2C"/>
<path d="M19.5 96H13.125V102.375H19.5V96Z" fill="#784A1E"/>
<path d="M19.5 89.625H13.125V96H19.5V89.625Z" fill="#784A1E"/>
<path d="M19.5 83.25H13.125V89.625H19.5V83.25Z" fill="#F6EB16"/>
<path d="M19.5 76.875H13.125V83.25H19.5V76.875Z" fill="#F6EB16"/>
<path d="M19.5 70.5H13.125V76.875H19.5V70.5Z" fill="#BC8A2C"/>
<path d="M19.5 64.125H13.125V70.5H19.5V64.125Z" fill="#BC8A2C"/>
<path d="M13.125 83.25H6.75V89.625H13.125V83.25Z" fill="#784A1E"/>
<path d="M13.125 76.875H6.75V83.25H13.125V76.875Z" fill="#784A1E"/>
<path d="M13.125 70.5H6.75V76.875H13.125V70.5Z" fill="#784A1E"/>
<path d="M13.125 64.125H6.75V70.5H13.125V64.125Z" fill="#784A1E"/>
<path d="M6.75 83.25H0.375V89.625H6.75V83.25Z" fill="#784A1E"/>
<path d="M6.75 76.875H0.375V83.25H6.75V76.875Z" fill="#784A1E"/>
<path d="M6.75 70.5H0.375V76.875H6.75V70.5Z" fill="#784A1E"/>
<path d="M6.75 64.125H0.375V70.5H6.75V64.125Z" fill="#784A1E"/>
</g>
<defs>
<clipPath id="clip0_1_5">
<rect width="192" height="192" fill="white"/>
</clipPath>
</defs>
</svg>
